<?xml version="1.0" encoding="utf-8"?>
<!-- Generator: Adobe Illustrator 24.0.1, SVG Export Plug-In . SVG Version: 6.00 Build 0)  -->
<svg version="1.1" id="Layer_1" xmlns="http://www.w3.org/2000/svg" xmlns:xlink="http://www.w3.org/1999/xlink" x="0px" y="0px"
	 viewBox="0 0 1920 1080" style="enable-background:new 0 0 1920 1080;" xml:space="preserve">
<style type="text/css">
	.st0{fill:#FFFFFF;}
</style>
<g>
	<polygon class="st0" points="1824.5,155.5 1824.5,148 1823.5,148 1823.5,155.5 1816,155.5 1816,156.5 1823.5,156.5 1823.5,164 
		1824.5,164 1824.5,156.5 1832,156.5 1832,155.5 	"/>
	<polygon class="st0" points="1824.5,244 1823.5,244 1823.5,251.5 1816,251.5 1816,252.5 1823.5,252.5 1823.5,260 1824.5,260 
		1824.5,252.5 1832,252.5 1832,251.5 1824.5,251.5 	"/>
	<polygon class="st0" points="1824.5,340 1823.5,340 1823.5,347.5 1816,347.5 1816,348.5 1823.5,348.5 1823.5,356 1824.5,356 
		1824.5,348.5 1832,348.5 1832,347.5 1824.5,347.5 	"/>
	<polygon class="st0" points="1824.5,436 1823.5,436 1823.5,443.5 1816,443.5 1816,444.5 1823.5,444.5 1823.5,452 1824.5,452 
		1824.5,444.5 1832,444.5 1832,443.5 1824.5,443.5 	"/>
	<polygon class="st0" points="1824.5,532 1823.5,532 1823.5,539.5 1816,539.5 1816,540.5 1823.5,540.5 1823.5,548 1824.5,548 
		1824.5,540.5 1832,540.5 1832,539.5 1824.5,539.5 	"/>
	<polygon class="st0" points="1824.5,628 1823.5,628 1823.5,635.5 1816,635.5 1816,636.5 1823.5,636.5 1823.5,644 1824.5,644 
		1824.5,636.5 1832,636.5 1832,635.5 1824.5,635.5 	"/>
	<polygon class="st0" points="1824.5,724 1823.5,724 1823.5,731.5 1816,731.5 1816,732.5 1823.5,732.5 1823.5,740 1824.5,740 
		1824.5,732.5 1832,732.5 1832,731.5 1824.5,731.5 	"/>
	<polygon class="st0" points="1824.5,820 1823.5,820 1823.5,827.5 1816,827.5 1816,828.5 1823.5,828.5 1823.5,836 1824.5,836 
		1824.5,828.5 1832,828.5 1832,827.5 1824.5,827.5 	"/>
	<polygon class="st0" points="1824.5,916 1823.5,916 1823.5,923.5 1816,923.5 1816,924.5 1823.5,924.5 1823.5,932 1824.5,932 
		1824.5,924.5 1832,924.5 1832,923.5 1824.5,923.5 	"/>
	<polygon class="st0" points="1728.5,148 1727.5,148 1727.5,155.5 1720,155.5 1720,156.5 1727.5,156.5 1727.5,164 1728.5,164 
		1728.5,156.5 1736,156.5 1736,155.5 1728.5,155.5 	"/>
	<polygon class="st0" points="1728.5,244 1727.5,244 1727.5,251.5 1720,251.5 1720,252.5 1727.5,252.5 1727.5,260 1728.5,260 
		1728.5,252.5 1736,252.5 1736,251.5 1728.5,251.5 	"/>
	<polygon class="st0" points="1728.5,340 1727.5,340 1727.5,347.5 1720,347.5 1720,348.5 1727.5,348.5 1727.5,356 1728.5,356 
		1728.5,348.5 1736,348.5 1736,347.5 1728.5,347.5 	"/>
	<polygon class="st0" points="1728.5,436 1727.5,436 1727.5,443.5 1720,443.5 1720,444.5 1727.5,444.5 1727.5,452 1728.5,452 
		1728.5,444.5 1736,444.5 1736,443.5 1728.5,443.5 	"/>
	<polygon class="st0" points="1728.5,532 1727.5,532 1727.5,539.5 1720,539.5 1720,540.5 1727.5,540.5 1727.5,548 1728.5,548 
		1728.5,540.5 1736,540.5 1736,539.5 1728.5,539.5 	"/>
	<polygon class="st0" points="1728.5,628 1727.5,628 1727.5,635.5 1720,635.5 1720,636.5 1727.5,636.5 1727.5,644 1728.5,644 
		1728.5,636.5 1736,636.5 1736,635.5 1728.5,635.5 	"/>
	<polygon class="st0" points="1728.5,724 1727.5,724 1727.5,731.5 1720,731.5 1720,732.5 1727.5,732.5 1727.5,740 1728.5,740 
		1728.5,732.5 1736,732.5 1736,731.5 1728.5,731.5 	"/>
	<polygon class="st0" points="1728.5,820 1727.5,820 1727.5,827.5 1720,827.5 1720,828.5 1727.5,828.5 1727.5,836 1728.5,836 
		1728.5,828.5 1736,828.5 1736,827.5 1728.5,827.5 	"/>
	<polygon class="st0" points="1728.5,916 1727.5,916 1727.5,923.5 1720,923.5 1720,924.5 1727.5,924.5 1727.5,932 1728.5,932 
		1728.5,924.5 1736,924.5 1736,923.5 1728.5,923.5 	"/>
	<polygon class="st0" points="1632.5,148 1631.5,148 1631.5,155.5 1624,155.5 1624,156.5 1631.5,156.5 1631.5,164 1632.5,164 
		1632.5,156.5 1640,156.5 1640,155.5 1632.5,155.5 	"/>
	<polygon class="st0" points="1632.5,244 1631.5,244 1631.5,251.5 1624,251.5 1624,252.5 1631.5,252.5 1631.5,260 1632.5,260 
		1632.5,252.5 1640,252.5 1640,251.5 1632.5,251.5 	"/>
	<polygon class="st0" points="1632.5,340 1631.5,340 1631.5,347.5 1624,347.5 1624,348.5 1631.5,348.5 1631.5,356 1632.5,356 
		1632.5,348.5 1640,348.5 1640,347.5 1632.5,347.5 	"/>
	<polygon class="st0" points="1632.5,436 1631.5,436 1631.5,443.5 1624,443.5 1624,444.5 1631.5,444.5 1631.5,452 1632.5,452 
		1632.5,444.5 1640,444.5 1640,443.5 1632.5,443.5 	"/>
	<polygon class="st0" points="1632.5,532 1631.5,532 1631.5,539.5 1624,539.5 1624,540.5 1631.5,540.5 1631.5,548 1632.5,548 
		1632.5,540.5 1640,540.5 1640,539.5 1632.5,539.5 	"/>
	<polygon class="st0" points="1632.5,628 1631.5,628 1631.5,635.5 1624,635.5 1624,636.5 1631.5,636.5 1631.5,644 1632.5,644 
		1632.5,636.5 1640,636.5 1640,635.5 1632.5,635.5 	"/>
	<polygon class="st0" points="1632.5,724 1631.5,724 1631.5,731.5 1624,731.5 1624,732.5 1631.5,732.5 1631.5,740 1632.5,740 
		1632.5,732.5 1640,732.5 1640,731.5 1632.5,731.5 	"/>
	<polygon class="st0" points="1632.5,820 1631.5,820 1631.5,827.5 1624,827.5 1624,828.5 1631.5,828.5 1631.5,836 1632.5,836 
		1632.5,828.5 1640,828.5 1640,827.5 1632.5,827.5 	"/>
	<polygon class="st0" points="1632.5,916 1631.5,916 1631.5,923.5 1624,923.5 1624,924.5 1631.5,924.5 1631.5,932 1632.5,932 
		1632.5,924.5 1640,924.5 1640,923.5 1632.5,923.5 	"/>
	<polygon class="st0" points="1536.5,148 1535.5,148 1535.5,155.5 1528,155.5 1528,156.5 1535.5,156.5 1535.5,164 1536.5,164 
		1536.5,156.5 1544,156.5 1544,155.5 1536.5,155.5 	"/>
	<polygon class="st0" points="1536.5,244 1535.5,244 1535.5,251.5 1528,251.5 1528,252.5 1535.5,252.5 1535.5,260 1536.5,260 
		1536.5,252.5 1544,252.5 1544,251.5 1536.5,251.5 	"/>
	<polygon class="st0" points="1536.5,340 1535.5,340 1535.5,347.5 1528,347.5 1528,348.5 1535.5,348.5 1535.5,356 1536.5,356 
		1536.5,348.5 1544,348.5 1544,347.5 1536.5,347.5 	"/>
	<polygon class="st0" points="1536.5,436 1535.5,436 1535.5,443.5 1528,443.5 1528,444.5 1535.5,444.5 1535.5,452 1536.5,452 
		1536.5,444.5 1544,444.5 1544,443.5 1536.5,443.5 	"/>
	<polygon class="st0" points="1536.5,532 1535.5,532 1535.5,539.5 1528,539.5 1528,540.5 1535.5,540.5 1535.5,548 1536.5,548 
		1536.5,540.5 1544,540.5 1544,539.5 1536.5,539.5 	"/>
	<polygon class="st0" points="1536.5,628 1535.5,628 1535.5,635.5 1528,635.5 1528,636.5 1535.5,636.5 1535.5,644 1536.5,644 
		1536.5,636.5 1544,636.5 1544,635.5 1536.5,635.5 	"/>
	<polygon class="st0" points="1536.5,724 1535.5,724 1535.5,731.5 1528,731.5 1528,732.5 1535.5,732.5 1535.5,740 1536.5,740 
		1536.5,732.5 1544,732.5 1544,731.5 1536.5,731.5 	"/>
	<polygon class="st0" points="1536.5,820 1535.5,820 1535.5,827.5 1528,827.5 1528,828.5 1535.5,828.5 1535.5,836 1536.5,836 
		1536.5,828.5 1544,828.5 1544,827.5 1536.5,827.5 	"/>
	<polygon class="st0" points="1536.5,916 1535.5,916 1535.5,923.5 1528,923.5 1528,924.5 1535.5,924.5 1535.5,932 1536.5,932 
		1536.5,924.5 1544,924.5 1544,923.5 1536.5,923.5 	"/>
	<polygon class="st0" points="1440.5,148 1439.5,148 1439.5,155.5 1432,155.5 1432,156.5 1439.5,156.5 1439.5,164 1440.5,164 
		1440.5,156.5 1448,156.5 1448,155.5 1440.5,155.5 	"/>
	<polygon class="st0" points="1440.5,244 1439.5,244 1439.5,251.5 1432,251.5 1432,252.5 1439.5,252.5 1439.5,260 1440.5,260 
		1440.5,252.5 1448,252.5 1448,251.5 1440.5,251.5 	"/>
	<polygon class="st0" points="1440.5,340 1439.5,340 1439.5,347.5 1432,347.5 1432,348.5 1439.5,348.5 1439.5,356 1440.5,356 
		1440.5,348.5 1448,348.5 1448,347.5 1440.5,347.5 	"/>
	<polygon class="st0" points="1440.5,436 1439.5,436 1439.5,443.5 1432,443.5 1432,444.5 1439.5,444.5 1439.5,452 1440.5,452 
		1440.5,444.5 1448,444.5 1448,443.5 1440.5,443.5 	"/>
	<polygon class="st0" points="1440.5,532 1439.5,532 1439.5,539.5 1432,539.5 1432,540.5 1439.5,540.5 1439.5,548 1440.5,548 
		1440.5,540.5 1448,540.5 1448,539.5 1440.5,539.5 	"/>
	<polygon class="st0" points="1440.5,628 1439.5,628 1439.5,635.5 1432,635.5 1432,636.5 1439.5,636.5 1439.5,644 1440.5,644 
		1440.5,636.5 1448,636.5 1448,635.5 1440.5,635.5 	"/>
	<polygon class="st0" points="1440.5,724 1439.5,724 1439.5,731.5 1432,731.5 1432,732.5 1439.5,732.5 1439.5,740 1440.5,740 
		1440.5,732.5 1448,732.5 1448,731.5 1440.5,731.5 	"/>
	<polygon class="st0" points="1440.5,820 1439.5,820 1439.5,827.5 1432,827.5 1432,828.5 1439.5,828.5 1439.5,836 1440.5,836 
		1440.5,828.5 1448,828.5 1448,827.5 1440.5,827.5 	"/>
	<polygon class="st0" points="1440.5,916 1439.5,916 1439.5,923.5 1432,923.5 1432,924.5 1439.5,924.5 1439.5,932 1440.5,932 
		1440.5,924.5 1448,924.5 1448,923.5 1440.5,923.5 	"/>
	<polygon class="st0" points="1344.5,148 1343.5,148 1343.5,155.5 1336,155.5 1336,156.5 1343.5,156.5 1343.5,164 1344.5,164 
		1344.5,156.5 1352,156.5 1352,155.5 1344.5,155.5 	"/>
	<polygon class="st0" points="1344.5,244 1343.5,244 1343.5,251.5 1336,251.5 1336,252.5 1343.5,252.5 1343.5,260 1344.5,260 
		1344.5,252.5 1352,252.5 1352,251.5 1344.5,251.5 	"/>
	<polygon class="st0" points="1344.5,340 1343.5,340 1343.5,347.5 1336,347.5 1336,348.5 1343.5,348.5 1343.5,356 1344.5,356 
		1344.5,348.5 1352,348.5 1352,347.5 1344.5,347.5 	"/>
	<polygon class="st0" points="1344.5,436 1343.5,436 1343.5,443.5 1336,443.5 1336,444.5 1343.5,444.5 1343.5,452 1344.5,452 
		1344.5,444.5 1352,444.5 1352,443.5 1344.5,443.5 	"/>
	<polygon class="st0" points="1344.5,532 1343.5,532 1343.5,539.5 1336,539.5 1336,540.5 1343.5,540.5 1343.5,548 1344.5,548 
		1344.5,540.5 1352,540.5 1352,539.5 1344.5,539.5 	"/>
	<polygon class="st0" points="1344.5,628 1343.5,628 1343.5,635.5 1336,635.5 1336,636.5 1343.5,636.5 1343.5,644 1344.5,644 
		1344.5,636.5 1352,636.5 1352,635.5 1344.5,635.5 	"/>
	<polygon class="st0" points="1344.5,724 1343.5,724 1343.5,731.5 1336,731.5 1336,732.5 1343.5,732.5 1343.5,740 1344.5,740 
		1344.5,732.5 1352,732.5 1352,731.5 1344.5,731.5 	"/>
	<polygon class="st0" points="1344.5,820 1343.5,820 1343.5,827.5 1336,827.5 1336,828.5 1343.5,828.5 1343.5,836 1344.5,836 
		1344.5,828.5 1352,828.5 1352,827.5 1344.5,827.5 	"/>
	<polygon class="st0" points="1344.5,916 1343.5,916 1343.5,923.5 1336,923.5 1336,924.5 1343.5,924.5 1343.5,932 1344.5,932 
		1344.5,924.5 1352,924.5 1352,923.5 1344.5,923.5 	"/>
	<polygon class="st0" points="1248.5,148 1247.5,148 1247.5,155.5 1240,155.5 1240,156.5 1247.5,156.5 1247.5,164 1248.5,164 
		1248.5,156.5 1256,156.5 1256,155.5 1248.5,155.5 	"/>
	<polygon class="st0" points="1248.5,244 1247.5,244 1247.5,251.5 1240,251.5 1240,252.5 1247.5,252.5 1247.5,260 1248.5,260 
		1248.5,252.5 1256,252.5 1256,251.5 1248.5,251.5 	"/>
	<polygon class="st0" points="1248.5,340 1247.5,340 1247.5,347.5 1240,347.5 1240,348.5 1247.5,348.5 1247.5,356 1248.5,356 
		1248.5,348.5 1256,348.5 1256,347.5 1248.5,347.5 	"/>
	<polygon class="st0" points="1248.5,436 1247.5,436 1247.5,443.5 1240,443.5 1240,444.5 1247.5,444.5 1247.5,452 1248.5,452 
		1248.5,444.5 1256,444.5 1256,443.5 1248.5,443.5 	"/>
	<polygon class="st0" points="1248.5,532 1247.5,532 1247.5,539.5 1240,539.5 1240,540.5 1247.5,540.5 1247.5,548 1248.5,548 
		1248.5,540.5 1256,540.5 1256,539.5 1248.5,539.5 	"/>
	<polygon class="st0" points="1248.5,628 1247.5,628 1247.5,635.5 1240,635.5 1240,636.5 1247.5,636.5 1247.5,644 1248.5,644 
		1248.5,636.5 1256,636.5 1256,635.5 1248.5,635.5 	"/>
	<polygon class="st0" points="1248.5,724 1247.5,724 1247.5,731.5 1240,731.5 1240,732.5 1247.5,732.5 1247.5,740 1248.5,740 
		1248.5,732.5 1256,732.5 1256,731.5 1248.5,731.5 	"/>
	<polygon class="st0" points="1248.5,820 1247.5,820 1247.5,827.5 1240,827.5 1240,828.5 1247.5,828.5 1247.5,836 1248.5,836 
		1248.5,828.5 1256,828.5 1256,827.5 1248.5,827.5 	"/>
	<polygon class="st0" points="1248.5,916 1247.5,916 1247.5,923.5 1240,923.5 1240,924.5 1247.5,924.5 1247.5,932 1248.5,932 
		1248.5,924.5 1256,924.5 1256,923.5 1248.5,923.5 	"/>
	<polygon class="st0" points="1152.5,148 1151.5,148 1151.5,155.5 1144,155.5 1144,156.5 1151.5,156.5 1151.5,164 1152.5,164 
		1152.5,156.5 1160,156.5 1160,155.5 1152.5,155.5 	"/>
	<polygon class="st0" points="1152.5,244 1151.5,244 1151.5,251.5 1144,251.5 1144,252.5 1151.5,252.5 1151.5,260 1152.5,260 
		1152.5,252.5 1160,252.5 1160,251.5 1152.5,251.5 	"/>
	<polygon class="st0" points="1152.5,340 1151.5,340 1151.5,347.5 1144,347.5 1144,348.5 1151.5,348.5 1151.5,356 1152.5,356 
		1152.5,348.5 1160,348.5 1160,347.5 1152.5,347.5 	"/>
	<polygon class="st0" points="1152.5,436 1151.5,436 1151.5,443.5 1144,443.5 1144,444.5 1151.5,444.5 1151.5,452 1152.5,452 
		1152.5,444.5 1160,444.5 1160,443.5 1152.5,443.5 	"/>
	<polygon class="st0" points="1152.5,532 1151.5,532 1151.5,539.5 1144,539.5 1144,540.5 1151.5,540.5 1151.5,548 1152.5,548 
		1152.5,540.5 1160,540.5 1160,539.5 1152.5,539.5 	"/>
	<polygon class="st0" points="1152.5,628 1151.5,628 1151.5,635.5 1144,635.5 1144,636.5 1151.5,636.5 1151.5,644 1152.5,644 
		1152.5,636.5 1160,636.5 1160,635.5 1152.5,635.5 	"/>
	<polygon class="st0" points="1152.5,724 1151.5,724 1151.5,731.5 1144,731.5 1144,732.5 1151.5,732.5 1151.5,740 1152.5,740 
		1152.5,732.5 1160,732.5 1160,731.5 1152.5,731.5 	"/>
	<polygon class="st0" points="1152.5,820 1151.5,820 1151.5,827.5 1144,827.5 1144,828.5 1151.5,828.5 1151.5,836 1152.5,836 
		1152.5,828.5 1160,828.5 1160,827.5 1152.5,827.5 	"/>
	<polygon class="st0" points="1152.5,916 1151.5,916 1151.5,923.5 1144,923.5 1144,924.5 1151.5,924.5 1151.5,932 1152.5,932 
		1152.5,924.5 1160,924.5 1160,923.5 1152.5,923.5 	"/>
	<polygon class="st0" points="1056.5,148 1055.5,148 1055.5,155.5 1048,155.5 1048,156.5 1055.5,156.5 1055.5,164 1056.5,164 
		1056.5,156.5 1064,156.5 1064,155.5 1056.5,155.5 	"/>
	<polygon class="st0" points="1056.5,244 1055.5,244 1055.5,251.5 1048,251.5 1048,252.5 1055.5,252.5 1055.5,260 1056.5,260 
		1056.5,252.5 1064,252.5 1064,251.5 1056.5,251.5 	"/>
	<polygon class="st0" points="1056.5,340 1055.5,340 1055.5,347.5 1048,347.5 1048,348.5 1055.5,348.5 1055.5,356 1056.5,356 
		1056.5,348.5 1064,348.5 1064,347.5 1056.5,347.5 	"/>
	<polygon class="st0" points="1056.5,436 1055.5,436 1055.5,443.5 1048,443.5 1048,444.5 1055.5,444.5 1055.5,452 1056.5,452 
		1056.5,444.5 1064,444.5 1064,443.5 1056.5,443.5 	"/>
	<polygon class="st0" points="1056.5,532 1055.5,532 1055.5,539.5 1048,539.5 1048,540.5 1055.5,540.5 1055.5,548 1056.5,548 
		1056.5,540.5 1064,540.5 1064,539.5 1056.5,539.5 	"/>
	<polygon class="st0" points="1056.5,628 1055.5,628 1055.5,635.5 1048,635.5 1048,636.5 1055.5,636.5 1055.5,644 1056.5,644 
		1056.5,636.5 1064,636.5 1064,635.5 1056.5,635.5 	"/>
	<polygon class="st0" points="1056.5,724 1055.5,724 1055.5,731.5 1048,731.5 1048,732.5 1055.5,732.5 1055.5,740 1056.5,740 
		1056.5,732.5 1064,732.5 1064,731.5 1056.5,731.5 	"/>
	<polygon class="st0" points="1056.5,820 1055.5,820 1055.5,827.5 1048,827.5 1048,828.5 1055.5,828.5 1055.5,836 1056.5,836 
		1056.5,828.5 1064,828.5 1064,827.5 1056.5,827.5 	"/>
	<polygon class="st0" points="1056.5,916 1055.5,916 1055.5,923.5 1048,923.5 1048,924.5 1055.5,924.5 1055.5,932 1056.5,932 
		1056.5,924.5 1064,924.5 1064,923.5 1056.5,923.5 	"/>
	<polygon class="st0" points="960.5,148 959.5,148 959.5,155.5 952,155.5 952,156.5 959.5,156.5 959.5,164 960.5,164 960.5,156.5 
		968,156.5 968,155.5 960.5,155.5 	"/>
	<polygon class="st0" points="960.5,244 959.5,244 959.5,251.5 952,251.5 952,252.5 959.5,252.5 959.5,260 960.5,260 960.5,252.5 
		968,252.5 968,251.5 960.5,251.5 	"/>
	<polygon class="st0" points="960.5,340 959.5,340 959.5,347.5 952,347.5 952,348.5 959.5,348.5 959.5,356 960.5,356 960.5,348.5 
		968,348.5 968,347.5 960.5,347.5 	"/>
	<polygon class="st0" points="960.5,436 959.5,436 959.5,443.5 952,443.5 952,444.5 959.5,444.5 959.5,452 960.5,452 960.5,444.5 
		968,444.5 968,443.5 960.5,443.5 	"/>
	<polygon class="st0" points="960.5,532 959.5,532 959.5,539.5 952,539.5 952,540.5 959.5,540.5 959.5,548 960.5,548 960.5,540.5 
		968,540.5 968,539.5 960.5,539.5 	"/>
	<polygon class="st0" points="960.5,628 959.5,628 959.5,635.5 952,635.5 952,636.5 959.5,636.5 959.5,644 960.5,644 960.5,636.5 
		968,636.5 968,635.5 960.5,635.5 	"/>
	<polygon class="st0" points="960.5,724 959.5,724 959.5,731.5 952,731.5 952,732.5 959.5,732.5 959.5,740 960.5,740 960.5,732.5 
		968,732.5 968,731.5 960.5,731.5 	"/>
	<polygon class="st0" points="960.5,820 959.5,820 959.5,827.5 952,827.5 952,828.5 959.5,828.5 959.5,836 960.5,836 960.5,828.5 
		968,828.5 968,827.5 960.5,827.5 	"/>
	<polygon class="st0" points="960.5,916 959.5,916 959.5,923.5 952,923.5 952,924.5 959.5,924.5 959.5,932 960.5,932 960.5,924.5 
		968,924.5 968,923.5 960.5,923.5 	"/>
	<polygon class="st0" points="864.5,148 863.5,148 863.5,155.5 856,155.5 856,156.5 863.5,156.5 863.5,164 864.5,164 864.5,156.5 
		872,156.5 872,155.5 864.5,155.5 	"/>
	<polygon class="st0" points="864.5,244 863.5,244 863.5,251.5 856,251.5 856,252.5 863.5,252.5 863.5,260 864.5,260 864.5,252.5 
		872,252.5 872,251.5 864.5,251.5 	"/>
	<polygon class="st0" points="864.5,340 863.5,340 863.5,347.5 856,347.5 856,348.5 863.5,348.5 863.5,356 864.5,356 864.5,348.5 
		872,348.5 872,347.5 864.5,347.5 	"/>
	<polygon class="st0" points="864.5,436 863.5,436 863.5,443.5 856,443.5 856,444.5 863.5,444.5 863.5,452 864.5,452 864.5,444.5 
		872,444.5 872,443.5 864.5,443.5 	"/>
	<polygon class="st0" points="864.5,532 863.5,532 863.5,539.5 856,539.5 856,540.5 863.5,540.5 863.5,548 864.5,548 864.5,540.5 
		872,540.5 872,539.5 864.5,539.5 	"/>
	<polygon class="st0" points="864.5,628 863.5,628 863.5,635.5 856,635.5 856,636.5 863.5,636.5 863.5,644 864.5,644 864.5,636.5 
		872,636.5 872,635.5 864.5,635.5 	"/>
	<polygon class="st0" points="864.5,724 863.5,724 863.5,731.5 856,731.5 856,732.5 863.5,732.5 863.5,740 864.5,740 864.5,732.5 
		872,732.5 872,731.5 864.5,731.5 	"/>
	<polygon class="st0" points="864.5,820 863.5,820 863.5,827.5 856,827.5 856,828.5 863.5,828.5 863.5,836 864.5,836 864.5,828.5 
		872,828.5 872,827.5 864.5,827.5 	"/>
	<polygon class="st0" points="864.5,916 863.5,916 863.5,923.5 856,923.5 856,924.5 863.5,924.5 863.5,932 864.5,932 864.5,924.5 
		872,924.5 872,923.5 864.5,923.5 	"/>
	<polygon class="st0" points="768.5,148 767.5,148 767.5,155.5 760,155.5 760,156.5 767.5,156.5 767.5,164 768.5,164 768.5,156.5 
		776,156.5 776,155.5 768.5,155.5 	"/>
	<polygon class="st0" points="768.5,244 767.5,244 767.5,251.5 760,251.5 760,252.5 767.5,252.5 767.5,260 768.5,260 768.5,252.5 
		776,252.5 776,251.5 768.5,251.5 	"/>
	<polygon class="st0" points="768.5,340 767.5,340 767.5,347.5 760,347.5 760,348.5 767.5,348.5 767.5,356 768.5,356 768.5,348.5 
		776,348.5 776,347.5 768.5,347.5 	"/>
	<polygon class="st0" points="768.5,436 767.5,436 767.5,443.5 760,443.5 760,444.5 767.5,444.5 767.5,452 768.5,452 768.5,444.5 
		776,444.5 776,443.5 768.5,443.5 	"/>
	<polygon class="st0" points="768.5,532 767.5,532 767.5,539.5 760,539.5 760,540.5 767.5,540.5 767.5,548 768.5,548 768.5,540.5 
		776,540.5 776,539.5 768.5,539.5 	"/>
	<polygon class="st0" points="768.5,628 767.5,628 767.5,635.5 760,635.5 760,636.5 767.5,636.5 767.5,644 768.5,644 768.5,636.5 
		776,636.5 776,635.5 768.5,635.5 	"/>
	<polygon class="st0" points="768.5,724 767.5,724 767.5,731.5 760,731.5 760,732.5 767.5,732.5 767.5,740 768.5,740 768.5,732.5 
		776,732.5 776,731.5 768.5,731.5 	"/>
	<polygon class="st0" points="768.5,820 767.5,820 767.5,827.5 760,827.5 760,828.5 767.5,828.5 767.5,836 768.5,836 768.5,828.5 
		776,828.5 776,827.5 768.5,827.5 	"/>
	<polygon class="st0" points="768.5,916 767.5,916 767.5,923.5 760,923.5 760,924.5 767.5,924.5 767.5,932 768.5,932 768.5,924.5 
		776,924.5 776,923.5 768.5,923.5 	"/>
	<polygon class="st0" points="672.5,148 671.5,148 671.5,155.5 664,155.5 664,156.5 671.5,156.5 671.5,164 672.5,164 672.5,156.5 
		680,156.5 680,155.5 672.5,155.5 	"/>
	<polygon class="st0" points="672.5,244 671.5,244 671.5,251.5 664,251.5 664,252.5 671.5,252.5 671.5,260 672.5,260 672.5,252.5 
		680,252.5 680,251.5 672.5,251.5 	"/>
	<polygon class="st0" points="672.5,340 671.5,340 671.5,347.5 664,347.5 664,348.5 671.5,348.5 671.5,356 672.5,356 672.5,348.5 
		680,348.5 680,347.5 672.5,347.5 	"/>
	<polygon class="st0" points="672.5,436 671.5,436 671.5,443.5 664,443.5 664,444.5 671.5,444.5 671.5,452 672.5,452 672.5,444.5 
		680,444.5 680,443.5 672.5,443.5 	"/>
	<polygon class="st0" points="672.5,532 671.5,532 671.5,539.5 664,539.5 664,540.5 671.5,540.5 671.5,548 672.5,548 672.5,540.5 
		680,540.5 680,539.5 672.5,539.5 	"/>
	<polygon class="st0" points="672.5,628 671.5,628 671.5,635.5 664,635.5 664,636.5 671.5,636.5 671.5,644 672.5,644 672.5,636.5 
		680,636.5 680,635.5 672.5,635.5 	"/>
	<polygon class="st0" points="672.5,724 671.5,724 671.5,731.5 664,731.5 664,732.5 671.5,732.5 671.5,740 672.5,740 672.5,732.5 
		680,732.5 680,731.5 672.5,731.5 	"/>
	<polygon class="st0" points="672.5,820 671.5,820 671.5,827.5 664,827.5 664,828.5 671.5,828.5 671.5,836 672.5,836 672.5,828.5 
		680,828.5 680,827.5 672.5,827.5 	"/>
	<polygon class="st0" points="672.5,916 671.5,916 671.5,923.5 664,923.5 664,924.5 671.5,924.5 671.5,932 672.5,932 672.5,924.5 
		680,924.5 680,923.5 672.5,923.5 	"/>
	<polygon class="st0" points="576.5,148 575.5,148 575.5,155.5 568,155.5 568,156.5 575.5,156.5 575.5,164 576.5,164 576.5,156.5 
		584,156.5 584,155.5 576.5,155.5 	"/>
	<polygon class="st0" points="576.5,244 575.5,244 575.5,251.5 568,251.5 568,252.5 575.5,252.5 575.5,260 576.5,260 576.5,252.5 
		584,252.5 584,251.5 576.5,251.5 	"/>
	<polygon class="st0" points="576.5,340 575.5,340 575.5,347.5 568,347.5 568,348.5 575.5,348.5 575.5,356 576.5,356 576.5,348.5 
		584,348.5 584,347.5 576.5,347.5 	"/>
	<polygon class="st0" points="576.5,436 575.5,436 575.5,443.5 568,443.5 568,444.5 575.5,444.5 575.5,452 576.5,452 576.5,444.5 
		584,444.5 584,443.5 576.5,443.5 	"/>
	<polygon class="st0" points="576.5,532 575.5,532 575.5,539.5 568,539.5 568,540.5 575.5,540.5 575.5,548 576.5,548 576.5,540.5 
		584,540.5 584,539.5 576.5,539.5 	"/>
	<polygon class="st0" points="576.5,628 575.5,628 575.5,635.5 568,635.5 568,636.5 575.5,636.5 575.5,644 576.5,644 576.5,636.5 
		584,636.5 584,635.5 576.5,635.5 	"/>
	<polygon class="st0" points="576.5,724 575.5,724 575.5,731.5 568,731.5 568,732.5 575.5,732.5 575.5,740 576.5,740 576.5,732.5 
		584,732.5 584,731.5 576.5,731.5 	"/>
	<polygon class="st0" points="576.5,820 575.5,820 575.5,827.5 568,827.5 568,828.5 575.5,828.5 575.5,836 576.5,836 576.5,828.5 
		584,828.5 584,827.5 576.5,827.5 	"/>
	<polygon class="st0" points="576.5,916 575.5,916 575.5,923.5 568,923.5 568,924.5 575.5,924.5 575.5,932 576.5,932 576.5,924.5 
		584,924.5 584,923.5 576.5,923.5 	"/>
	<polygon class="st0" points="480.5,148 479.5,148 479.5,155.5 472,155.5 472,156.5 479.5,156.5 479.5,164 480.5,164 480.5,156.5 
		488,156.5 488,155.5 480.5,155.5 	"/>
	<polygon class="st0" points="480.5,244 479.5,244 479.5,251.5 472,251.5 472,252.5 479.5,252.5 479.5,260 480.5,260 480.5,252.5 
		488,252.5 488,251.5 480.5,251.5 	"/>
	<polygon class="st0" points="480.5,340 479.5,340 479.5,347.5 472,347.5 472,348.5 479.5,348.5 479.5,356 480.5,356 480.5,348.5 
		488,348.5 488,347.5 480.5,347.5 	"/>
	<polygon class="st0" points="480.5,436 479.5,436 479.5,443.5 472,443.5 472,444.5 479.5,444.5 479.5,452 480.5,452 480.5,444.5 
		488,444.5 488,443.5 480.5,443.5 	"/>
	<polygon class="st0" points="480.5,532 479.5,532 479.5,539.5 472,539.5 472,540.5 479.5,540.5 479.5,548 480.5,548 480.5,540.5 
		488,540.5 488,539.5 480.5,539.5 	"/>
	<polygon class="st0" points="480.5,628 479.5,628 479.5,635.5 472,635.5 472,636.5 479.5,636.5 479.5,644 480.5,644 480.5,636.5 
		488,636.5 488,635.5 480.5,635.5 	"/>
	<polygon class="st0" points="480.5,724 479.5,724 479.5,731.5 472,731.5 472,732.5 479.5,732.5 479.5,740 480.5,740 480.5,732.5 
		488,732.5 488,731.5 480.5,731.5 	"/>
	<polygon class="st0" points="480.5,820 479.5,820 479.5,827.5 472,827.5 472,828.5 479.5,828.5 479.5,836 480.5,836 480.5,828.5 
		488,828.5 488,827.5 480.5,827.5 	"/>
	<polygon class="st0" points="480.5,916 479.5,916 479.5,923.5 472,923.5 472,924.5 479.5,924.5 479.5,932 480.5,932 480.5,924.5 
		488,924.5 488,923.5 480.5,923.5 	"/>
	<polygon class="st0" points="384.5,148 383.5,148 383.5,155.5 376,155.5 376,156.5 383.5,156.5 383.5,164 384.5,164 384.5,156.5 
		392,156.5 392,155.5 384.5,155.5 	"/>
	<polygon class="st0" points="384.5,244 383.5,244 383.5,251.5 376,251.5 376,252.5 383.5,252.5 383.5,260 384.5,260 384.5,252.5 
		392,252.5 392,251.5 384.5,251.5 	"/>
	<polygon class="st0" points="384.5,340 383.5,340 383.5,347.5 376,347.5 376,348.5 383.5,348.5 383.5,356 384.5,356 384.5,348.5 
		392,348.5 392,347.5 384.5,347.5 	"/>
	<polygon class="st0" points="384.5,436 383.5,436 383.5,443.5 376,443.5 376,444.5 383.5,444.5 383.5,452 384.5,452 384.5,444.5 
		392,444.5 392,443.5 384.5,443.5 	"/>
	<polygon class="st0" points="384.5,532 383.5,532 383.5,539.5 376,539.5 376,540.5 383.5,540.5 383.5,548 384.5,548 384.5,540.5 
		392,540.5 392,539.5 384.5,539.5 	"/>
	<polygon class="st0" points="384.5,628 383.5,628 383.5,635.5 376,635.5 376,636.5 383.5,636.5 383.5,644 384.5,644 384.5,636.5 
		392,636.5 392,635.5 384.5,635.5 	"/>
	<polygon class="st0" points="384.5,724 383.5,724 383.5,731.5 376,731.5 376,732.5 383.5,732.5 383.5,740 384.5,740 384.5,732.5 
		392,732.5 392,731.5 384.5,731.5 	"/>
	<polygon class="st0" points="384.5,820 383.5,820 383.5,827.5 376,827.5 376,828.5 383.5,828.5 383.5,836 384.5,836 384.5,828.5 
		392,828.5 392,827.5 384.5,827.5 	"/>
	<polygon class="st0" points="384.5,916 383.5,916 383.5,923.5 376,923.5 376,924.5 383.5,924.5 383.5,932 384.5,932 384.5,924.5 
		392,924.5 392,923.5 384.5,923.5 	"/>
	<polygon class="st0" points="288.5,148 287.5,148 287.5,155.5 280,155.5 280,156.5 287.5,156.5 287.5,164 288.5,164 288.5,156.5 
		296,156.5 296,155.5 288.5,155.5 	"/>
	<polygon class="st0" points="288.5,244 287.5,244 287.5,251.5 280,251.5 280,252.5 287.5,252.5 287.5,260 288.5,260 288.5,252.5 
		296,252.5 296,251.5 288.5,251.5 	"/>
	<polygon class="st0" points="288.5,340 287.5,340 287.5,347.5 280,347.5 280,348.5 287.5,348.5 287.5,356 288.5,356 288.5,348.5 
		296,348.5 296,347.5 288.5,347.5 	"/>
	<polygon class="st0" points="288.5,436 287.5,436 287.5,443.5 280,443.5 280,444.5 287.5,444.5 287.5,452 288.5,452 288.5,444.5 
		296,444.5 296,443.5 288.5,443.5 	"/>
	<polygon class="st0" points="288.5,532 287.5,532 287.5,539.5 280,539.5 280,540.5 287.5,540.5 287.5,548 288.5,548 288.5,540.5 
		296,540.5 296,539.5 288.5,539.5 	"/>
	<polygon class="st0" points="288.5,628 287.5,628 287.5,635.5 280,635.5 280,636.5 287.5,636.5 287.5,644 288.5,644 288.5,636.5 
		296,636.5 296,635.5 288.5,635.5 	"/>
	<polygon class="st0" points="288.5,724 287.5,724 287.5,731.5 280,731.5 280,732.5 287.5,732.5 287.5,740 288.5,740 288.5,732.5 
		296,732.5 296,731.5 288.5,731.5 	"/>
	<polygon class="st0" points="288.5,820 287.5,820 287.5,827.5 280,827.5 280,828.5 287.5,828.5 287.5,836 288.5,836 288.5,828.5 
		296,828.5 296,827.5 288.5,827.5 	"/>
	<polygon class="st0" points="288.5,916 287.5,916 287.5,923.5 280,923.5 280,924.5 287.5,924.5 287.5,932 288.5,932 288.5,924.5 
		296,924.5 296,923.5 288.5,923.5 	"/>
	<polygon class="st0" points="192.5,148 191.5,148 191.5,155.5 184,155.5 184,156.5 191.5,156.5 191.5,164 192.5,164 192.5,156.5 
		200,156.5 200,155.5 192.5,155.5 	"/>
	<polygon class="st0" points="192.5,244 191.5,244 191.5,251.5 184,251.5 184,252.5 191.5,252.5 191.5,260 192.5,260 192.5,252.5 
		200,252.5 200,251.5 192.5,251.5 	"/>
	<polygon class="st0" points="192.5,340 191.5,340 191.5,347.5 184,347.5 184,348.5 191.5,348.5 191.5,356 192.5,356 192.5,348.5 
		200,348.5 200,347.5 192.5,347.5 	"/>
	<polygon class="st0" points="192.5,436 191.5,436 191.5,443.5 184,443.5 184,444.5 191.5,444.5 191.5,452 192.5,452 192.5,444.5 
		200,444.5 200,443.5 192.5,443.5 	"/>
	<polygon class="st0" points="192.5,532 191.5,532 191.5,539.5 184,539.5 184,540.5 191.5,540.5 191.5,548 192.5,548 192.5,540.5 
		200,540.5 200,539.5 192.5,539.5 	"/>
	<polygon class="st0" points="192.5,628 191.5,628 191.5,635.5 184,635.5 184,636.5 191.5,636.5 191.5,644 192.5,644 192.5,636.5 
		200,636.5 200,635.5 192.5,635.5 	"/>
	<polygon class="st0" points="192.5,724 191.5,724 191.5,731.5 184,731.5 184,732.5 191.5,732.5 191.5,740 192.5,740 192.5,732.5 
		200,732.5 200,731.5 192.5,731.5 	"/>
	<polygon class="st0" points="192.5,820 191.5,820 191.5,827.5 184,827.5 184,828.5 191.5,828.5 191.5,836 192.5,836 192.5,828.5 
		200,828.5 200,827.5 192.5,827.5 	"/>
	<polygon class="st0" points="192.5,916 191.5,916 191.5,923.5 184,923.5 184,924.5 191.5,924.5 191.5,932 192.5,932 192.5,924.5 
		200,924.5 200,923.5 192.5,923.5 	"/>
	<polygon class="st0" points="96.5,148 95.5,148 95.5,155.5 88,155.5 88,156.5 95.5,156.5 95.5,164 96.5,164 96.5,156.5 104,156.5 
		104,155.5 96.5,155.5 	"/>
	<polygon class="st0" points="96.5,244 95.5,244 95.5,251.5 88,251.5 88,252.5 95.5,252.5 95.5,260 96.5,260 96.5,252.5 104,252.5 
		104,251.5 96.5,251.5 	"/>
	<polygon class="st0" points="96.5,340 95.5,340 95.5,347.5 88,347.5 88,348.5 95.5,348.5 95.5,356 96.5,356 96.5,348.5 104,348.5 
		104,347.5 96.5,347.5 	"/>
	<polygon class="st0" points="96.5,436 95.5,436 95.5,443.5 88,443.5 88,444.5 95.5,444.5 95.5,452 96.5,452 96.5,444.5 104,444.5 
		104,443.5 96.5,443.5 	"/>
	<polygon class="st0" points="96.5,532 95.5,532 95.5,539.5 88,539.5 88,540.5 95.5,540.5 95.5,548 96.5,548 96.5,540.5 104,540.5 
		104,539.5 96.5,539.5 	"/>
	<polygon class="st0" points="96.5,628 95.5,628 95.5,635.5 88,635.5 88,636.5 95.5,636.5 95.5,644 96.5,644 96.5,636.5 104,636.5 
		104,635.5 96.5,635.5 	"/>
	<polygon class="st0" points="96.5,724 95.5,724 95.5,731.5 88,731.5 88,732.5 95.5,732.5 95.5,740 96.5,740 96.5,732.5 104,732.5 
		104,731.5 96.5,731.5 	"/>
	<polygon class="st0" points="96.5,820 95.5,820 95.5,827.5 88,827.5 88,828.5 95.5,828.5 95.5,836 96.5,836 96.5,828.5 104,828.5 
		104,827.5 96.5,827.5 	"/>
	<polygon class="st0" points="96.5,916 95.5,916 95.5,923.5 88,923.5 88,924.5 95.5,924.5 95.5,932 96.5,932 96.5,924.5 104,924.5 
		104,923.5 96.5,923.5 	"/>
</g>
</svg>
